<svg xmlns="http://www.w3.org/2000/svg" xmlns:xlink="http://www.w3.org/1999/xlink" width="500" zoomAndPan="magnify" viewBox="0 0 375 374.999991" height="500" preserveAspectRatio="xMidYMid meet" version="1.0"><defs><g/></defs><g fill="#91adda" fill-opacity="1"><g transform="translate(40.071125, 174.889229)"><g><path d="M 41.703125 -44.375 C 42.066406 -44.15625 42.332031 -43.875 42.5 -43.53125 C 42.675781 -43.1875 42.644531 -42.78125 42.40625 -42.3125 L 36.96875 -34.578125 C 36.726562 -34.210938 36.472656 -34.003906 36.203125 -33.953125 C 35.929688 -33.898438 35.601562 -33.988281 35.21875 -34.21875 C 34.164062 -35.019531 33.003906 -35.632812 31.734375 -36.0625 C 30.472656 -36.488281 29.132812 -36.703125 27.71875 -36.703125 C 25.957031 -36.703125 24.332031 -36.367188 22.84375 -35.703125 C 21.363281 -35.035156 20.085938 -34.125 19.015625 -32.96875 C 17.941406 -31.8125 17.101562 -30.457031 16.5 -28.90625 C 15.894531 -27.363281 15.59375 -25.707031 15.59375 -23.9375 C 15.59375 -22.175781 15.894531 -20.523438 16.5 -18.984375 C 17.101562 -17.453125 17.941406 -16.113281 19.015625 -14.96875 C 20.085938 -13.820312 21.363281 -12.914062 22.84375 -12.25 C 24.332031 -11.582031 25.957031 -11.25 27.71875 -11.25 C 29.132812 -11.25 30.484375 -11.46875 31.765625 -11.90625 C 33.054688 -12.34375 34.226562 -12.960938 35.28125 -13.765625 C 35.675781 -13.992188 36 -14.085938 36.25 -14.046875 C 36.507812 -14.003906 36.769531 -13.8125 37.03125 -13.46875 L 42.546875 -5.546875 C 42.773438 -5.066406 42.800781 -4.664062 42.625 -4.34375 C 42.457031 -4.03125 42.191406 -3.765625 41.828125 -3.546875 C 39.804688 -2.191406 37.628906 -1.144531 35.296875 -0.40625 C 32.972656 0.332031 30.519531 0.703125 27.9375 0.703125 C 25.664062 0.703125 23.476562 0.414062 21.375 -0.15625 C 19.28125 -0.738281 17.320312 -1.566406 15.5 -2.640625 C 13.675781 -3.710938 12.015625 -4.992188 10.515625 -6.484375 C 9.023438 -7.984375 7.742188 -9.640625 6.671875 -11.453125 C 5.597656 -13.273438 4.769531 -15.234375 4.1875 -17.328125 C 3.601562 -19.421875 3.3125 -21.601562 3.3125 -23.875 C 3.3125 -26.15625 3.601562 -28.34375 4.1875 -30.4375 C 4.769531 -32.53125 5.597656 -34.492188 6.671875 -36.328125 C 7.742188 -38.171875 9.023438 -39.84375 10.515625 -41.34375 C 12.015625 -42.851562 13.675781 -44.140625 15.5 -45.203125 C 17.320312 -46.265625 19.28125 -47.085938 21.375 -47.671875 C 23.476562 -48.265625 25.664062 -48.5625 27.9375 -48.5625 C 30.519531 -48.5625 32.953125 -48.203125 35.234375 -47.484375 C 37.523438 -46.765625 39.679688 -45.726562 41.703125 -44.375 Z M 41.703125 -44.375 "/></g></g></g><g fill="#91adda" fill-opacity="1"><g transform="translate(85.478349, 174.889229)"><g><path d="M 18.890625 -46.59375 C 18.910156 -46.726562 18.976562 -46.867188 19.09375 -47.015625 C 19.207031 -47.171875 19.347656 -47.3125 19.515625 -47.4375 C 19.691406 -47.5625 19.878906 -47.660156 20.078125 -47.734375 C 20.273438 -47.816406 20.457031 -47.859375 20.625 -47.859375 L 28.875 -47.859375 C 29.238281 -47.859375 29.550781 -47.742188 29.8125 -47.515625 C 30.070312 -47.296875 30.265625 -47.097656 30.390625 -46.921875 L 31.203125 -45.078125 L 48.109375 -1.453125 C 48.285156 -1.023438 48.253906 -0.675781 48.015625 -0.40625 C 47.773438 -0.132812 47.367188 0 46.796875 0 L 37.546875 0 C 37.046875 0 36.660156 -0.0859375 36.390625 -0.265625 C 36.128906 -0.453125 35.921875 -0.757812 35.765625 -1.1875 C 35.335938 -2.289062 34.921875 -3.382812 34.515625 -4.46875 C 34.109375 -5.550781 33.703125 -6.640625 33.296875 -7.734375 L 16.171875 -7.734375 C 15.765625 -6.640625 15.351562 -5.550781 14.9375 -4.46875 C 14.519531 -3.382812 14.109375 -2.289062 13.703125 -1.1875 C 13.421875 -0.394531 12.867188 0 12.046875 0 L 2.546875 0 C 2.140625 0 1.800781 -0.101562 1.53125 -0.3125 C 1.257812 -0.53125 1.210938 -0.859375 1.390625 -1.296875 Z M 24.75 -32.8125 C 24.34375 -31.707031 23.925781 -30.519531 23.5 -29.25 C 23.082031 -27.988281 22.671875 -26.710938 22.265625 -25.421875 C 21.859375 -24.140625 21.445312 -22.867188 21.03125 -21.609375 C 20.613281 -20.347656 20.195312 -19.171875 19.78125 -18.078125 L 29.6875 -18.078125 Z M 24.75 -32.8125 "/></g></g></g><g fill="#91adda" fill-opacity="1"><g transform="translate(134.817212, 174.889229)"><g><path d="M 7.859375 -46.4375 C 7.898438 -46.820312 8.050781 -47.15625 8.3125 -47.4375 C 8.570312 -47.71875 8.9375 -47.859375 9.40625 -47.859375 L 20.5625 -47.859375 C 21.351562 -47.859375 21.867188 -47.445312 22.109375 -46.625 L 30.875 -17.375 L 39.703125 -46.625 C 40.003906 -47.445312 40.550781 -47.859375 41.34375 -47.859375 L 52.375 -47.859375 C 52.757812 -47.859375 53.109375 -47.722656 53.421875 -47.453125 C 53.734375 -47.179688 53.910156 -46.84375 53.953125 -46.4375 C 54.703125 -38.875 55.46875 -31.367188 56.25 -23.921875 C 57.03125 -16.484375 57.800781 -8.984375 58.5625 -1.421875 L 58.5625 -1.25 C 58.5625 -0.414062 58.085938 0 57.140625 0 L 48.015625 0 C 47.023438 0 46.507812 -0.472656 46.46875 -1.421875 L 43.671875 -26.328125 L 36.421875 -1.25 C 36.378906 -1.039062 36.222656 -0.785156 35.953125 -0.484375 C 35.679688 -0.179688 35.414062 -0.03125 35.15625 -0.03125 L 26.6875 -0.03125 C 26.425781 -0.03125 26.148438 -0.175781 25.859375 -0.46875 C 25.566406 -0.757812 25.410156 -1.019531 25.390625 -1.25 L 18.140625 -26.265625 L 15.34375 -1.421875 C 15.300781 -0.472656 14.773438 0 13.765625 0 L 4.640625 0 C 3.710938 0 3.25 -0.472656 3.25 -1.421875 Z M 7.859375 -46.4375 "/></g></g></g><g fill="#91adda" fill-opacity="1"><g transform="translate(196.724435, 174.889229)"><g><path d="M 5.1875 -46.375 C 5.1875 -46.820312 5.3125 -47.179688 5.5625 -47.453125 C 5.8125 -47.722656 6.160156 -47.859375 6.609375 -47.859375 L 38.609375 -47.859375 C 39.078125 -47.859375 39.441406 -47.71875 39.703125 -47.4375 C 39.960938 -47.15625 40.09375 -46.78125 40.09375 -46.3125 L 40.09375 -38.3125 C 40.09375 -37.945312 39.960938 -37.597656 39.703125 -37.265625 C 39.441406 -36.929688 39.066406 -36.765625 38.578125 -36.765625 L 17.6875 -36.765625 L 17.6875 -28.8125 L 33.8125 -28.8125 C 34.21875 -28.8125 34.550781 -28.710938 34.8125 -28.515625 C 35.082031 -28.328125 35.21875 -28.003906 35.21875 -27.546875 L 35.21875 -20.59375 C 35.21875 -20.289062 35.097656 -20 34.859375 -19.71875 C 34.628906 -19.4375 34.289062 -19.296875 33.84375 -19.296875 L 17.6875 -19.296875 L 17.6875 -11.09375 L 39.34375 -11.09375 C 40.3125 -11.09375 40.796875 -10.597656 40.796875 -9.609375 L 40.796875 -1.484375 C 40.796875 -1.265625 40.710938 -1.070312 40.546875 -0.90625 C 40.453125 -0.300781 40.007812 0 39.21875 0 L 6.609375 0 C 6.179688 0 5.835938 -0.109375 5.578125 -0.328125 C 5.316406 -0.554688 5.1875 -0.910156 5.1875 -1.390625 Z M 5.1875 -46.375 "/></g></g></g><g fill="#91adda" fill-opacity="1"><g transform="translate(240.230292, 174.889229)"><g><path d="M 5.25 -46.375 C 5.25 -46.820312 5.367188 -47.179688 5.609375 -47.453125 C 5.847656 -47.722656 6.203125 -47.859375 6.671875 -47.859375 L 27.484375 -47.859375 C 29.703125 -47.859375 31.773438 -47.441406 33.703125 -46.609375 C 35.640625 -45.785156 37.328125 -44.664062 38.765625 -43.25 C 40.203125 -41.832031 41.332031 -40.171875 42.15625 -38.265625 C 42.988281 -36.367188 43.40625 -34.34375 43.40625 -32.1875 C 43.40625 -30.726562 43.207031 -29.335938 42.8125 -28.015625 C 42.414062 -26.703125 41.863281 -25.46875 41.15625 -24.3125 C 40.445312 -23.164062 39.601562 -22.125 38.625 -21.1875 C 37.644531 -20.25 36.578125 -19.445312 35.421875 -18.78125 L 43.703125 -3.1875 C 43.847656 -2.882812 44.039062 -2.53125 44.28125 -2.125 C 44.519531 -1.71875 44.640625 -1.363281 44.640625 -1.0625 C 44.640625 -0.71875 44.523438 -0.453125 44.296875 -0.265625 C 44.066406 -0.0859375 43.757812 0 43.375 0 L 32.328125 0 C 31.960938 0 31.632812 -0.101562 31.34375 -0.3125 C 31.050781 -0.53125 30.863281 -0.820312 30.78125 -1.1875 L 22.953125 -15.921875 L 17.71875 -15.921875 L 17.71875 -1.390625 C 17.71875 -0.460938 17.226562 0 16.25 0 L 6.671875 0 C 6.242188 0 5.898438 -0.109375 5.640625 -0.328125 C 5.378906 -0.554688 5.25 -0.910156 5.25 -1.390625 Z M 30.484375 -32.0625 C 30.484375 -32.707031 30.363281 -33.351562 30.125 -34 C 29.894531 -34.644531 29.5625 -35.234375 29.125 -35.765625 C 28.695312 -36.304688 28.179688 -36.757812 27.578125 -37.125 C 26.984375 -37.488281 26.320312 -37.722656 25.59375 -37.828125 C 24.988281 -37.878906 24.421875 -37.921875 23.890625 -37.953125 C 23.367188 -37.984375 22.796875 -38 22.171875 -38 L 17.71875 -38 L 17.71875 -26.171875 L 23.65625 -26.171875 C 24.039062 -26.171875 24.382812 -26.179688 24.6875 -26.203125 C 24.988281 -26.222656 25.320312 -26.253906 25.6875 -26.296875 C 26.4375 -26.378906 27.113281 -26.597656 27.71875 -26.953125 C 28.320312 -27.304688 28.828125 -27.742188 29.234375 -28.265625 C 29.640625 -28.796875 29.945312 -29.390625 30.15625 -30.046875 C 30.375 -30.703125 30.484375 -31.375 30.484375 -32.0625 Z M 30.484375 -32.0625 "/></g></g></g><g fill="#91adda" fill-opacity="1"><g transform="translate(285.573062, 174.889229)"><g><path d="M 18.890625 -46.59375 C 18.910156 -46.726562 18.976562 -46.867188 19.09375 -47.015625 C 19.207031 -47.171875 19.347656 -47.3125 19.515625 -47.4375 C 19.691406 -47.5625 19.878906 -47.660156 20.078125 -47.734375 C 20.273438 -47.816406 20.457031 -47.859375 20.625 -47.859375 L 28.875 -47.859375 C 29.238281 -47.859375 29.550781 -47.742188 29.8125 -47.515625 C 30.070312 -47.296875 30.265625 -47.097656 30.390625 -46.921875 L 31.203125 -45.078125 L 48.109375 -1.453125 C 48.285156 -1.023438 48.253906 -0.675781 48.015625 -0.40625 C 47.773438 -0.132812 47.367188 0 46.796875 0 L 37.546875 0 C 37.046875 0 36.660156 -0.0859375 36.390625 -0.265625 C 36.128906 -0.453125 35.921875 -0.757812 35.765625 -1.1875 C 35.335938 -2.289062 34.921875 -3.382812 34.515625 -4.46875 C 34.109375 -5.550781 33.703125 -6.640625 33.296875 -7.734375 L 16.171875 -7.734375 C 15.765625 -6.640625 15.351562 -5.550781 14.9375 -4.46875 C 14.519531 -3.382812 14.109375 -2.289062 13.703125 -1.1875 C 13.421875 -0.394531 12.867188 0 12.046875 0 L 2.546875 0 C 2.140625 0 1.800781 -0.101562 1.53125 -0.3125 C 1.257812 -0.53125 1.210938 -0.859375 1.390625 -1.296875 Z M 24.75 -32.8125 C 24.34375 -31.707031 23.925781 -30.519531 23.5 -29.25 C 23.082031 -27.988281 22.671875 -26.710938 22.265625 -25.421875 C 21.859375 -24.140625 21.445312 -22.867188 21.03125 -21.609375 C 20.613281 -20.347656 20.195312 -19.171875 19.78125 -18.078125 L 29.6875 -18.078125 Z M 24.75 -32.8125 "/></g></g></g><path stroke-linecap="butt" transform="matrix(0.75, 0, 0, 0.75, 33.391438, 189.87264)" fill="none" stroke-linejoin="miter" d="M 97.332256 43.232317 C 97.332256 45.154192 97.655173 46.951067 98.295798 48.622942 C 98.952048 50.284401 99.863506 51.737526 101.024965 52.977109 C 102.191631 54.211484 103.57184 55.185443 105.16559 55.893776 C 106.769757 56.596901 108.530173 56.945859 110.452049 56.945859 C 112.373924 56.945859 114.139549 56.596901 115.743716 55.893776 C 117.358299 55.185443 118.748924 54.211484 119.915591 52.977109 C 121.087466 51.737526 121.998924 50.284401 122.644758 48.622942 C 123.285383 46.951067 123.608299 45.154192 123.608299 43.232317 C 123.608299 41.331275 123.285383 39.544817 122.644758 37.872941 C 121.998924 36.19065 121.087466 34.727108 119.915591 33.482316 C 118.748924 32.227108 117.358299 31.247941 115.743716 30.534399 C 114.139549 29.810441 112.373924 29.445858 110.452049 29.445858 C 108.530173 29.445858 106.769757 29.810441 105.16559 30.534399 C 103.57184 31.247941 102.191631 32.227108 101.024965 33.482316 C 99.863506 34.727108 98.952048 36.19065 98.295798 37.872941 C 97.655173 39.544817 97.332256 41.331275 97.332256 43.232317 Z M 83.920797 43.263567 C 83.920797 40.810442 84.233297 38.461483 84.853089 36.211483 C 85.488505 33.951066 86.37913 31.831274 87.530172 29.857316 C 88.696839 27.878149 90.082256 26.081274 91.686422 24.466691 C 93.290589 22.836482 95.077048 21.451065 97.045798 20.31044 C 99.019756 19.159399 101.13434 18.263565 103.38434 17.633357 C 105.644757 16.99794 107.998923 16.680232 110.452049 16.680232 C 112.88434 16.680232 115.233299 16.99794 117.504132 17.633357 C 119.774966 18.263565 121.894758 19.159399 123.863508 20.31044 C 125.832258 21.451065 127.618716 22.836482 129.238508 24.466691 C 130.853092 26.081274 132.2333 27.878149 133.373925 29.857316 C 134.524967 31.831274 135.4208 33.951066 136.051009 36.211483 C 136.696842 38.461483 137.019759 40.810442 137.019759 43.263567 C 137.019759 45.727109 136.696842 48.091692 136.051009 50.352109 C 135.4208 52.602109 134.524967 54.701068 133.373925 56.659401 C 132.2333 58.612526 130.853092 60.398985 129.238508 62.013568 C 127.618716 63.617735 125.832258 64.997943 123.863508 66.154193 C 121.894758 67.305235 119.774966 68.19586 117.504132 68.831277 C 115.233299 69.451069 112.88434 69.763569 110.452049 69.763569 C 107.998923 69.763569 105.644757 69.451069 103.38434 68.831277 C 101.13434 68.19586 99.019756 67.305235 97.045798 66.154193 C 95.077048 64.997943 93.290589 63.617735 91.686422 62.013568 C 90.082256 60.398985 88.696839 58.612526 87.530172 56.659401 C 86.37913 54.701068 85.488505 52.602109 84.853089 50.352109 C 84.233297 48.091692 83.920797 45.727109 83.920797 43.263567 Z M 145.592676 19.039607 C 145.592676 18.555232 145.717676 18.169815 145.967676 17.888565 C 146.222884 17.59169 146.608301 17.445857 147.118718 17.445857 L 169.545802 17.445857 C 171.931219 17.445857 174.165594 17.893773 176.24372 18.784399 C 178.332261 19.664607 180.155178 20.878149 181.702053 22.414607 C 183.248928 23.940649 184.472887 25.721899 185.363512 27.768774 C 186.259345 29.815649 186.702054 31.997941 186.702054 34.31565 C 186.702054 35.883358 186.488512 37.383358 186.061429 38.805233 C 185.629137 40.232317 185.030178 41.56565 184.264553 42.805233 C 183.504137 44.039609 182.592678 45.164609 181.535387 46.180234 C 180.483303 47.185442 179.332261 48.044817 178.092678 48.758359 L 187.009345 65.560443 C 187.165595 65.888568 187.36872 66.268777 187.61872 66.711485 C 187.879137 67.154193 188.009345 67.529193 188.009345 67.846902 C 188.009345 68.221902 187.884345 68.50836 187.634345 68.711485 C 187.39997 68.904193 187.077054 68.997943 186.670804 68.997943 L 174.754136 68.997943 C 174.358303 68.997943 173.998928 68.888568 173.681219 68.659402 C 173.379136 68.425027 173.181219 68.107318 173.092678 67.711485 L 164.649969 51.841692 L 159.01976 51.841692 L 159.01976 67.50836 C 159.01976 68.503152 158.48851 68.997943 157.42601 68.997943 L 147.118718 68.997943 C 146.655176 68.997943 146.280176 68.88336 145.998926 68.643777 C 145.728093 68.393777 145.592676 68.018777 145.592676 67.50836 Z M 172.769761 34.451066 C 172.769761 33.758358 172.639553 33.070858 172.379136 32.383358 C 172.129136 31.680233 171.774969 31.039608 171.311428 30.466691 C 170.847886 29.888566 170.290594 29.404191 169.649969 29.008358 C 169.004136 28.612524 168.285386 28.357316 167.493719 28.242732 C 166.853094 28.201066 166.238511 28.159399 165.665594 28.128149 C 165.097886 28.081274 164.483302 28.060441 163.816635 28.060441 L 159.01976 28.060441 L 159.01976 40.805233 L 165.410386 40.805233 C 165.827052 40.805233 166.196844 40.794817 166.514552 40.773983 C 166.842677 40.747942 167.202052 40.716692 167.597886 40.669817 C 168.410386 40.581275 169.139552 40.341692 169.785386 39.961483 C 170.441636 39.576067 170.983303 39.102108 171.410386 38.5344 C 171.853094 37.9719 172.186428 37.336483 172.410386 36.638566 C 172.649969 35.925025 172.769761 35.195858 172.769761 34.451066 Z M 209.12393 18.800024 C 209.144763 18.65419 209.21768 18.503149 209.34268 18.34169 C 209.478097 18.18544 209.639555 18.039607 209.816638 17.90419 C 209.99893 17.758357 210.191638 17.643773 210.394763 17.565648 C 210.608305 17.487523 210.81143 17.445857 211.004139 17.445857 L 219.889556 17.445857 C 220.285389 17.445857 220.618722 17.570857 220.889556 17.820857 C 221.170806 18.055232 221.379139 18.263565 221.514556 18.445857 L 222.379139 20.430232 L 240.623932 67.440652 C 240.801015 67.904193 240.764557 68.284402 240.50414 68.576068 C 240.25414 68.857318 239.821849 68.997943 239.196849 68.997943 L 229.228098 68.997943 C 228.696848 68.997943 228.28539 68.904193 227.993723 68.711485 C 227.707265 68.50836 227.483306 68.175027 227.311431 67.711485 C 226.84789 66.534402 226.399973 65.367735 225.957265 64.201068 C 225.530181 63.029193 225.092681 61.846901 224.649973 60.659401 L 206.207263 60.659401 C 205.764555 61.846901 205.321846 63.029193 204.868721 64.201068 C 204.415596 65.367735 203.96768 66.534402 203.53018 67.711485 C 203.233305 68.57086 202.644763 68.997943 201.764555 68.997943 L 191.524971 68.997943 C 191.082262 68.997943 190.717679 68.888568 190.426012 68.659402 C 190.139554 68.425027 190.092679 68.07086 190.269762 67.607318 Z M 215.446847 33.654191 C 215.004139 34.841691 214.56143 36.117733 214.108305 37.482316 C 213.65518 38.841692 213.207264 40.211483 212.769764 41.602108 C 212.327055 42.992733 211.879139 44.367734 211.426014 45.7219 C 210.978097 47.081275 210.53018 48.3469 210.087472 49.518776 L 220.754139 49.518776 Z M 247.665599 18.971899 C 247.665599 18.555232 247.790599 18.195857 248.035391 17.90419 C 248.295808 17.596898 248.681224 17.445857 249.191641 17.445857 L 260.545808 17.445857 C 260.863517 17.445857 261.19685 17.523982 261.545809 17.68544 C 261.899975 17.84169 262.19685 18.117732 262.44685 18.513565 C 265.38435 23.258357 268.301017 27.940649 271.196851 32.550024 C 274.087476 37.148983 277.019768 41.826067 279.993726 46.570859 L 279.993726 18.768774 C 280.082268 18.352107 280.26456 18.02919 280.535393 17.800023 C 280.816643 17.565648 281.144768 17.445857 281.519768 17.445857 L 291.405185 17.445857 C 291.889561 17.445857 292.295811 17.581273 292.623936 17.852107 C 292.952061 18.112523 293.113519 18.487524 293.113519 18.971899 L 293.113519 67.643777 C 293.113519 68.107318 292.972894 68.451068 292.691644 68.680235 C 292.420811 68.893777 292.040602 68.997943 291.556227 68.997943 L 280.467685 68.997943 C 280.176018 68.997943 279.910393 68.898985 279.67081 68.69586 C 279.446851 68.482318 279.20206 68.19586 278.941643 67.846902 C 275.868726 62.763568 272.821851 57.732318 269.806226 52.758359 C 266.795809 47.773984 263.748934 42.737525 260.649975 37.654191 L 260.649975 67.471902 C 260.649975 67.982318 260.530183 68.367735 260.295808 68.628152 C 260.066642 68.878152 259.655183 68.997943 259.056225 68.997943 L 249.191641 68.997943 C 248.660391 68.997943 248.269766 68.857318 248.019766 68.576068 C 247.780183 68.284402 247.665599 67.925027 247.665599 67.50836 Z M 310.993728 18.836482 C 310.993728 17.977107 311.446853 17.513565 312.347895 17.445857 L 322.587479 17.445857 C 323.832271 17.445857 324.452063 18.044815 324.452063 19.242732 L 324.452063 66.815652 C 324.452063 69.107318 323.993729 71.253152 323.082271 73.253152 C 322.176021 75.253152 320.946854 77.003152 319.384354 78.492736 C 317.837479 79.987528 316.040604 81.159403 313.993729 82.018778 C 311.946853 82.878153 309.790603 83.310444 307.51977 83.310444 C 306.170811 83.310444 304.847895 83.154194 303.55102 82.852111 C 302.264561 82.555236 301.030186 82.112528 299.853103 81.513569 C 298.691644 80.925028 297.603103 80.195861 296.597894 79.326069 C 295.592686 78.456277 294.707269 77.456277 293.936436 76.326069 C 293.868727 76.300027 293.837477 76.112527 293.837477 75.763569 C 293.837477 75.164611 294.024977 74.732319 294.394769 74.461486 L 300.431228 68.794818 C 300.623936 68.628152 300.821853 68.492735 301.024978 68.388568 C 301.228103 68.28961 301.426019 68.237527 301.618728 68.237527 C 301.967686 68.237527 302.295811 68.367735 302.603103 68.628152 C 302.915603 68.878152 303.264561 69.154193 303.634353 69.456277 C 304.01977 69.773985 304.467686 70.055235 304.972895 70.305235 C 305.493728 70.565652 306.108311 70.69586 306.821853 70.69586 C 307.353103 70.69586 307.873937 70.586485 308.384353 70.372944 C 308.889562 70.169819 309.337478 69.893777 309.722895 69.544819 C 310.108312 69.201069 310.410395 68.794818 310.639562 68.32086 C 310.873937 67.846902 310.993728 67.341693 310.993728 66.815652 Z M 310.993728 18.836482 " stroke="#ff914d" stroke-width="2.604008" stroke-opacity="1" stroke-miterlimit="4"/></svg>