<svg xmlns="http://www.w3.org/2000/svg" xmlns:xlink="http://www.w3.org/1999/xlink" viewBox="0 0 690.27 117.5"><defs><style>.cls-1{fill:#fff;}.cls-2{fill:url(#linear-gradient);}</style><linearGradient id="linear-gradient" y1="83.57" x2="182.97" y2="83.57" gradientUnits="userSpaceOnUse"><stop offset="0.05" stop-color="#7ec34a"/><stop offset="0.53" stop-color="#49b85a"/><stop offset="1" stop-color="#30af6c"/></linearGradient></defs><g id="Layer_2" data-name="Layer 2"><g id="Layer_1-2" data-name="Layer 1"><path class="cls-1" d="M297.07,60.83H249.18a14.87,14.87,0,0,0,6.12,9.29,20.22,20.22,0,0,0,12,3.41,24.1,24.1,0,0,0,8.77-1.47,21.32,21.32,0,0,0,7.11-4.64L293,78Q284,88.24,266.83,88.24a41.23,41.23,0,0,1-18.94-4.18,30.59,30.59,0,0,1-12.71-11.58,32,32,0,0,1-4.47-16.83,32.35,32.35,0,0,1,4.41-16.76,30.8,30.8,0,0,1,12.12-11.65,37.5,37.5,0,0,1,34.06-.18,29.28,29.28,0,0,1,11.83,11.47,34.25,34.25,0,0,1,4.29,17.36C297.42,56.12,297.3,57.77,297.07,60.83ZM254.12,40.47A15,15,0,0,0,249,50.12h31.17A15.17,15.17,0,0,0,275,40.53a15.51,15.51,0,0,0-10.36-3.59A15.84,15.84,0,0,0,254.12,40.47Z"/><path class="cls-1" d="M374.13,0V87.3H356.6V80q-6.83,8.24-19.77,8.23a32.8,32.8,0,0,1-16.17-4A28.61,28.61,0,0,1,309.3,72.83a34.85,34.85,0,0,1-4.11-17.18,34.85,34.85,0,0,1,4.11-17.18,28.67,28.67,0,0,1,11.36-11.41,32.8,32.8,0,0,1,16.17-4q12.12,0,18.95,7.65V0ZM351.54,68.42q4.59-4.77,4.59-12.77t-4.59-12.76a16.47,16.47,0,0,0-23.18,0q-4.59,4.76-4.59,12.76t4.59,12.77a16.49,16.49,0,0,0,23.18,0Z"/><path class="cls-1" d="M454.84,24V87.3H437.43V79.77a24.28,24.28,0,0,1-8.71,6.29,27.23,27.23,0,0,1-10.94,2.18q-12.48,0-19.77-7.18t-7.29-21.29V24h18.35V57.06q0,15.3,12.83,15.3a13.78,13.78,0,0,0,10.59-4.3q4-4.29,4-12.76V24Z"/><path class="cls-1" d="M498,56.24,483.43,69.65V87.3h-8.35V0h8.35V59.18l36.94-33.77h10.36l-26.47,25.3L533.2,87.3H523Z"/><path class="cls-1" d="M544.73,10.12A5.78,5.78,0,0,1,543,5.88a5.64,5.64,0,0,1,1.77-4.12A5.94,5.94,0,0,1,549.08,0a6,6,0,0,1,4.36,1.71,5.46,5.46,0,0,1,1.76,4.06,6.16,6.16,0,0,1-10.47,4.35Zm.12,15.29h8.35V87.3h-8.35Z"/><path class="cls-1" d="M667.32,25.41,643.91,87.3H636L616.5,36.59,597,87.3h-7.89L565.79,25.41h8L593.2,78l19.89-52.6h7.17L640,78l19.65-52.6Z"/><path class="cls-1" d="M679.8,10.12A5.78,5.78,0,0,1,678,5.88a5.64,5.64,0,0,1,1.77-4.12A5.91,5.91,0,0,1,684.15,0a6,6,0,0,1,4.35,1.71,5.43,5.43,0,0,1,1.77,4.06,6,6,0,0,1-6.12,6.11A5.91,5.91,0,0,1,679.8,10.12Zm.11,15.29h8.36V87.3h-8.36Z"/><path class="cls-2" d="M180.8,57.71,160,53,113.73,89.46a2.78,2.78,0,0,1-3,.32L29.08,49.64l-27,7.42a2.79,2.79,0,0,0-.51,5.19l109.9,55a2.8,2.8,0,0,0,3-.33l67.49-54.27A2.8,2.8,0,0,0,180.8,57.71Z"/><path class="cls-1" d="M16.37,22.38,84.61.6a2.6,2.6,0,0,1,1.21,0L169,24a2.4,2.4,0,0,1,1.25,4.17L113.78,72.69a2.44,2.44,0,0,1-2.64.29L15.85,26.13C13.82,25.11,14.19,23,16.37,22.38Z"/></g></g></svg>