<svg fetchpriority="auto" xmlns="http://www.w3.org/2000/svg" viewBox="0 0 72.7 72.7" xml:space="preserve">
<g transform="translate(-5058.203 -12.746)" fill="#fff">
<path d="M5058.2 54.6h6.3c3.7 0 6.2 1.6 6.2 4.9 0 3.3-2.5 5.1-6.3 5.1h-1.5v3.8h-4.7V54.6zm5.8 6.8c1.2 0 2-.5 2-1.5s-.7-1.5-2-1.5h-1.2v3.1l1.2-.1zm7.6-6.8h6.7c2.4 0 4 .6 4.9 1.6.9.9 1.3 2.1 1.3 3.3 0 1.8-1.1 3.5-2.7 4.2l3.2 4.7h-5.2l-2.7-4h-1v4h-4.5V54.6zm6.6 6.6c1.1 0 1.8-.5 1.8-1.3 0-.9-.7-1.3-1.8-1.3h-2v2.7c.6-.1 1.3-.1 2-.1zm14-6.8c-4 0-7.2 3.2-7.2 7.2s3.2 7.2 7.2 7.2 7.2-3.2 7.2-7.2-3.2-7.2-7.2-7.2zm0 10.3c-1.7 0-3.1-1.4-3.1-3.1 0-1.7 1.4-3.1 3.1-3.1 1.7 0 3.1 1.4 3.1 3.1 0 1.7-1.4 3.1-3.1 3.1z"></path>
<circle cx="5103.9" cy="61.6" r="2.8"></circle>
<path d="M5106.6 54.6h10.8v2.6h-3.9v11.2h-3V57.2h-3.9v-2.6zm16.6 13.8-4.9-13.8h3.2l3.1 9.8 3.1-9.8h3.2l-4.9 13.8h-2.8zM5068.5 41c0 2.7-2.3 4.1-5.2 4.1s-5.1-1.6-5.1-4.4v-1.3h2v1.3c0 1.9 1.5 2.7 3.1 2.7s3.1-.7 3.1-2.3V41c0-3.4-7.9-2.4-7.9-7.4v-.2c0-2.5 2.1-3.9 4.9-3.9s4.9 1.6 4.9 4.3v1.3h-2v-1.3c0-1.5-1.2-2.7-2.7-2.7h-.3c-1.6 0-2.8.9-2.8 2.2v.2c0 3.4 7.9 2.3 7.9 7.3.1-.1.1.2.1.2zm11.3-9.7h-3.5V45h-2.1V31.3h-3.6v-1.6h9.2v1.6zm3.1-1.7h2.1v15.3h-2.1V29.6zm16.7 15.3h-2.1l-.6-4c-.3-2.3-1.4-2.5-3-2.5h-2.6v6.5h-2.1V29.6h5.6c2.8 0 4.5 1.5 4.5 4v.3c.2 1.7-.9 3.2-2.6 3.6 1.1.4 1.9 1.3 2.2 3.2l.7 4.2zm-8.3-13.6v5.5h3.3c1.6 0 2.7-.8 2.7-2.4v-.5c.1-1.3-.9-2.4-2.2-2.5h-3.8zm11.8-1.7h2.1v15.3h-2.1V29.6zm15.5 13.6v1.6h-9.1V29.6h2v13.6h7.1zm5.1-11.9v5h5.7v1.6h-5.7v5.3h7.2v1.6h-9.3V29.6h9.2v1.6l-7.1.1zm-59.5 16.2-.3.9h-1.4l.4-.9v-1.2h1.3v1.2z"></path>
</g>
</svg>